# This file uses centimeters as units for non-parametric coordinates.

mtllib low_poly_house_mid.mtl
g default
v -5.276896 -0.000000 8.243187
v 3.583502 -0.000000 8.243187
v -5.276896 6.073928 8.243187
v 3.583502 6.073928 8.243187
v -5.276896 6.073928 -8.243187
v 3.583502 6.073928 -8.243187
v -5.276896 -0.000000 -8.243187
v 3.583502 -0.000000 -8.243187
v 3.583502 6.073928 0.321651
v -5.276896 6.073928 0.321651
v -5.276896 -0.000000 0.321651
v 3.583502 -0.000000 0.321651
v 3.583502 8.684829 -4.064642
v -5.276896 8.684829 -4.064642
v -5.276896 -0.000000 -4.064642
v 3.583502 -0.000000 -4.064642
v -0.786641 8.659016 8.243187
v -0.786640 6.073928 -8.243187
v -0.786640 -0.000000 -8.243187
v -0.786640 -0.000000 -4.064642
v -0.786640 -0.000000 0.321651
v -0.786640 -0.000000 8.243187
v -5.547501 5.989914 8.746696
v -0.788005 8.743029 8.746696
v -5.547501 5.989914 0.341298
v -5.547501 8.760294 -4.038676
v -0.788005 5.989914 -8.746696
v -5.547501 5.989914 -8.746696
v 3.854107 5.989914 8.746696
v 3.854107 5.989914 0.341298
v 3.854107 8.760294 -4.038676
v 3.854107 5.989914 -8.746696
v -5.521235 6.171000 8.697824
v -0.787872 8.907806 8.697824
v -0.787872 8.907806 0.339391
v -5.521235 6.171000 0.339391
v -0.787872 8.925901 -4.041190
v -5.521236 8.925901 -4.041190
v -0.787872 6.171000 -8.697824
v -5.521235 6.171000 -8.697824
v 3.827841 6.171000 8.697824
v 3.827841 6.171000 0.339391
v 3.827841 8.925901 -4.041190
v 3.827841 6.171000 -8.697824
vt 0.313179 0.013994
vt 0.481147 0.013994
vt 0.037298 0.780783
vt 0.054597 0.966421
vt 0.060981 0.959398
vt 0.058550 0.790550
vt 0.323181 0.789554
vt 0.313460 0.976462
vt 0.622602 0.914719
vt 0.630766 0.789452
vt 0.891793 0.614261
vt 0.793867 0.614261
vt 0.017708 0.583969
vt 0.891855 0.801115
vt 0.644649 0.013994
vt 0.987191 0.801115
vt 0.312614 0.589958
vt 0.052990 0.616707
vt 0.313866 0.992378
vt 0.465303 0.789320
vt 0.477784 0.932178
vt 0.478160 0.946816
vt 0.793864 0.705422
vt 0.891815 0.705422
vt 0.987159 0.705422
vt 0.483296 0.637448
vt 0.611433 0.789474
vt 0.614007 0.911203
vt 0.987169 0.614261
vt 0.621040 0.666346
vt 0.059658 0.624917
vt 0.312294 0.605881
vt 0.477091 0.649650
vt 0.613811 0.670398
vt 0.053798 0.785732
vt 0.058196 0.963908
vt 0.312219 0.982678
vt 0.476161 0.937531
vt 0.617977 0.912969
vt 0.616383 0.789464
vt 0.056856 0.620401
vt 0.311020 0.599669
vt 0.480211 0.645782
vt 0.617784 0.668605
vt 0.989547 0.356849
vt 0.825530 0.259221
vt 0.016886 0.241114
vt 0.181734 0.259221
vt 0.505844 0.356849
vt 0.669258 0.356849
vt 0.481272 0.338320
vt 0.644783 0.241114
vt 0.337949 0.356849
vt 0.313131 0.241114
vt 0.475441 0.644305
vt 0.480913 0.936053
vt 0.053801 0.795274
vt 0.477403 0.634972
vt 0.484018 0.944362
vt 0.037294 0.800110
vt 0.891901 0.973934
vt 0.987176 0.973934
vt 0.505898 0.583969
vt 0.669290 0.583969
vt 0.825514 0.583969
vt 0.940938 0.013994
vt 0.181712 0.583969
vt 0.793886 0.801115
vt 0.793872 0.973934
vt 0.337967 0.583969
vt 0.989535 0.583969
vt 0.941031 0.241114
vt 0.017694 0.356849
vt 0.016949 0.013994
vn -0.000000 0.000000 1.000000
vn 0.000000 0.000000 1.000000
vn 0.000000 0.000000 1.000000
vn -0.000000 0.000000 1.000000
vn -0.500548 0.865709 0.000000
vn 0.005487 0.999985 0.000000
vn 0.004363 0.986938 0.161041
vn -0.390150 0.908760 0.148119
vn 0.000000 0.000000 -1.000000
vn 0.000000 0.000000 -1.000000
vn 0.000000 0.000000 -1.000000
vn 0.000000 0.000000 -1.000000
vn 0.000000 -1.000000 0.000000
vn 0.000000 -1.000000 0.000000
vn 0.000000 -1.000000 0.000000
vn 0.000000 -1.000000 0.000000
vn 1.000000 0.000000 0.000000
vn 1.000000 0.000000 0.000000
vn 1.000000 0.000000 0.000000
vn 1.000000 0.000000 0.000000
vn -1.000000 0.000000 0.000000
vn -1.000000 0.000000 0.000000
vn -1.000000 0.000000 0.000000
vn -1.000000 0.000000 0.000000
vn 0.001751 0.992538 -0.121926
vn -0.146585 0.981842 -0.120410
vn -1.000000 0.000000 -0.000000
vn -1.000000 0.000000 -0.000000
vn 0.000000 -1.000000 0.000000
vn 0.000000 -1.000000 0.000000
vn 1.000000 0.000000 0.000000
vn 1.000000 0.000000 0.000000
vn 0.000000 0.860663 -0.509175
vn 0.000000 0.860663 -0.509175
vn -1.000000 0.000000 -0.000000
vn -1.000000 0.000000 -0.000000
vn 0.000000 -1.000000 0.000000
vn 0.000000 -1.000000 0.000000
vn 1.000000 0.000000 0.000000
vn 1.000000 0.000000 0.000000
vn 0.510019 0.860163 0.000000
vn 0.398252 0.905277 0.147881
vn 0.150101 0.981270 -0.120745
vn 0.000000 0.860663 -0.509175
vn 0.000000 0.000000 -1.000000
vn 0.000000 0.000000 -1.000000
vn 0.000000 -1.000000 0.000000
vn 0.000000 -1.000000 0.000000
vn 0.000000 -1.000000 0.000000
vn 0.000000 -1.000000 0.000000
vn 0.000000 0.000000 1.000000
vn 0.000000 0.000000 1.000000
vn 0.495356 -0.858326 0.133783
vn 0.495356 -0.858326 0.133783
vn 0.495356 -0.858326 0.133783
vn 0.495356 -0.858326 0.133783
vn 0.296504 -0.955032 0.000000
vn 0.296504 -0.955032 0.000000
vn 0.296504 -0.955032 0.000000
vn 0.296504 -0.955032 0.000000
vn -0.030617 -0.851837 -0.522911
vn -0.030617 -0.851837 -0.522911
vn -0.030617 -0.851837 -0.522911
vn -0.030617 -0.851837 -0.522911
vn 0.000000 -0.986364 0.164581
vn 0.000000 -0.986364 0.164581
vn 0.000000 -0.986364 0.164581
vn 0.000000 -0.986364 0.164581
vn -0.405447 -0.781928 0.473499
vn -0.405447 -0.781928 0.473499
vn -0.405447 -0.781928 0.473499
vn -0.405447 -0.781928 0.473499
vn -0.504967 -0.852514 0.135009
vn -0.504967 -0.852514 0.135009
vn -0.504967 -0.852514 0.135009
vn -0.504967 -0.852514 0.135009
vn -0.296503 -0.955032 0.000000
vn -0.296503 -0.955032 0.000000
vn -0.296503 -0.955032 0.000000
vn -0.296503 -0.955032 0.000000
vn 0.030617 -0.851837 -0.522911
vn 0.030617 -0.851837 -0.522911
vn 0.030617 -0.851837 -0.522911
vn 0.030617 -0.851837 -0.522911
vn 0.405447 -0.781929 0.473498
vn 0.405447 -0.781929 0.473498
vn 0.405447 -0.781929 0.473498
vn 0.405447 -0.781929 0.473498
vn 0.000000 -0.986364 0.164580
vn 0.000000 -0.986364 0.164580
vn 0.000000 -0.986364 0.164580
vn 0.000000 -0.986364 0.164580
vn -0.161809 0.279791 0.946327
vn -0.161809 0.279791 0.946327
vn -0.161809 0.279791 0.946327
vn -0.161809 0.279791 0.946327
vn -0.989644 0.143548 0.000000
vn -0.989644 0.143548 0.000000
vn -0.989644 0.143548 0.000000
vn -0.989644 0.143548 0.000000
vn -0.984082 0.150317 0.094806
vn -0.984082 0.150317 0.094806
vn -0.984082 0.150317 0.094806
vn -0.984082 0.150317 0.094806
vn 0.000000 0.260560 -0.965458
vn 0.000000 0.260560 -0.965458
vn 0.000000 0.260560 -0.965458
vn 0.000000 0.260560 -0.965458
vn -0.982245 0.161575 -0.095334
vn -0.982245 0.161575 -0.095334
vn -0.982245 0.161575 -0.095334
vn -0.982245 0.161575 -0.095334
vn 0.165908 0.279778 0.945621
vn 0.165908 0.279778 0.945621
vn 0.165908 0.279778 0.945621
vn 0.165908 0.279778 0.945621
vn 0.989643 0.143548 0.000000
vn 0.989643 0.143548 0.000000
vn 0.989643 0.143548 0.000000
vn 0.989643 0.143548 0.000000
vn 0.984081 0.150318 0.094806
vn 0.984081 0.150318 0.094806
vn 0.984081 0.150318 0.094806
vn 0.984081 0.150318 0.094806
vn 0.982244 0.161580 -0.095334
vn 0.982244 0.161580 -0.095334
vn 0.982244 0.161580 -0.095334
vn 0.982244 0.161580 -0.095334
vn 0.000000 0.260560 -0.965458
vn 0.000000 0.260560 -0.965458
vn 0.000000 0.260560 -0.965458
vn 0.000000 0.260560 -0.965458
s 1
g pCube1
usemtl initialShadingGroup
f 1/1/1 22/2/2 17/51/3 3/54/4
s 2
f 33/5/5 34/6/6 35/7/7 36/8/8
s 3
f 5/53/9 18/49/10 19/63/11 7/70/12
s 4
f 11/68/13 21/14/14 22/61/15 1/69/16
s 5
f 2/15/17 12/66/18 9/72/19 4/52/20
s 6
f 11/74/21 1/1/22 3/54/23 10/47/24
s 2
f 36/8/8 35/7/7 37/20/25 38/21/26
s 6
f 11/13/21 10/73/24 14/48/27 15/67/28
s 4
f 21/14/14 11/68/13 15/23/29 20/24/30
s 5
f 9/45/19 12/71/18 16/65/31 13/46/32
s 2
f 38/21/26 37/20/25 39/27/33 40/28/34
s 6
f 7/70/35 15/67/28 14/48/27 5/53/36
s 4
f 7/12/37 19/11/38 20/24/30 15/23/29
s 5
f 13/46/32 16/65/31 8/64/39 6/50/40
s 2
f 34/6/6 41/31/41 42/32/42 35/7/7
f 37/20/25 35/7/7 42/32/42 43/33/43
f 39/27/33 37/20/25 43/33/43 44/34/44
s 3
f 19/63/11 18/49/10 6/50/45 8/64/46
s 4
f 20/24/30 19/11/38 8/29/47 16/25/48
f 12/16/49 21/14/14 20/24/30 16/25/48
f 22/61/15 21/14/14 12/16/49 2/62/50
s 1
f 17/51/3 22/2/2 2/15/51 4/52/52
s off
f 3/4/53 17/60/54 24/57/55 23/36/56
f 10/19/57 3/4/58 23/36/59 25/37/60
f 14/22/61 10/19/62 25/37/63 26/38/64
f 18/10/65 5/9/66 28/39/67 27/40/68
f 5/9/69 14/59/70 26/56/71 28/39/72
f 17/3/73 4/18/74 29/41/75 24/35/76
f 4/18/77 9/17/78 30/42/79 29/41/80
f 9/17/81 13/58/82 31/55/83 30/42/84
f 13/26/85 6/30/86 32/44/87 31/43/88
f 6/30/89 18/10/90 27/40/91 32/44/92
f 23/36/93 24/57/94 34/6/95 33/5/96
f 25/37/97 23/36/98 33/5/99 36/8/100
f 26/38/101 25/37/102 36/8/103 38/21/104
f 27/40/105 28/39/106 40/28/107 39/27/108
f 28/39/109 26/56/110 38/21/111 40/28/112
f 24/35/113 29/41/114 41/31/115 34/6/116
f 29/41/117 30/42/118 42/32/119 41/31/120
f 30/42/121 31/55/122 43/33/123 42/32/124
f 31/43/125 32/44/126 44/34/127 43/33/128
f 32/44/129 27/40/130 39/27/131 44/34/132
