# This file uses centimeters as units for non-parametric coordinates.

mtllib low_poly_house.mtl
g default
v -4.353777 0.000000 4.212181
v 4.492009 0.000000 4.212181
v -4.353777 6.400045 4.212181
v 4.492009 6.400045 4.212181
v -4.353777 6.400045 -4.212181
v 4.492009 6.400045 -4.212181
v -4.353777 0.000000 -4.212181
v 4.492009 0.000000 -4.212181
v 4.492009 9.327850 -0.014036
v -4.353777 9.327850 -0.014036
v -4.353777 0.000000 -0.014036
v 4.492009 0.000000 -0.014036
v -4.802239 6.251611 4.639278
v 4.940471 6.251611 4.639278
v 4.940471 9.476284 -0.015459
v -4.802239 9.476284 -0.015459
v 4.940471 6.251611 -4.639278
v -4.802239 6.251611 -4.639278
v -4.956056 6.409510 4.785767
v 5.094289 6.409510 4.785767
v 5.094289 9.736005 -0.015947
v -4.956056 9.736005 -0.015947
v 5.094289 6.409510 -4.785767
v -4.956056 6.409510 -4.785767
vt 0.493236 0.250589
vt 0.018909 0.043311
vt 0.379145 0.537797
vt 0.379070 0.943339
vt 0.397422 0.943962
vt 0.397433 0.537174
vt 0.630498 0.522028
vt 0.630511 0.959108
vt 0.864183 0.943255
vt 0.864294 0.537881
vt 0.981622 0.250589
vt 0.266819 0.250589
vt 0.266819 0.146888
vt 0.863549 0.250589
vt 0.644564 0.493445
vt 0.598291 0.991118
vt 0.844444 0.538479
vt 0.844411 0.942667
vt 0.386518 0.533396
vt 0.386598 0.947740
vt 0.637740 0.509419
vt 0.605365 0.972092
vt 0.852791 0.535578
vt 0.852916 0.945546
vt 0.379694 0.512389
vt 0.266819 0.432742
vt 0.864451 0.513331
vt 0.018909 0.432742
vt 0.744399 0.432742
vt 0.493236 0.432742
vt 0.613257 0.522418
vt 0.613265 0.958718
vt 0.637740 0.971712
vt 0.605361 0.509038
vt 0.644564 0.987693
vt 0.598289 0.490018
vt 0.018909 0.146888
vt 0.742881 0.250589
vt 0.379694 0.250589
vt 0.266819 0.043388
vt 0.018909 0.250589
vt 0.981714 0.432742
vn 0.000000 0.000000 1.000000
vn 0.000000 0.000000 1.000000
vn 0.000000 0.000000 1.000000
vn 0.000000 0.000000 1.000000
vn 0.000000 0.822013 0.569468
vn 0.000000 0.822013 0.569468
vn 0.000000 0.999999 -0.001562
vn 0.000000 0.999999 -0.001562
vn 0.000000 0.000000 -1.000000
vn 0.000000 0.000000 -1.000000
vn 0.000000 0.000000 -1.000000
vn 0.000000 0.000000 -1.000000
vn 0.000000 -1.000000 0.000000
vn 0.000000 -1.000000 0.000000
vn 0.000000 -1.000000 0.000000
vn 0.000000 -1.000000 0.000000
vn 1.000000 0.000000 0.000000
vn 1.000000 0.000000 0.000000
vn 1.000000 0.000000 0.000000
vn 1.000000 0.000000 0.000000
vn -1.000000 0.000000 0.000000
vn -1.000000 0.000000 0.000000
vn -1.000000 0.000000 0.000000
vn -1.000000 0.000000 0.000000
vn 0.000000 0.820231 -0.572033
vn 0.000000 0.820231 -0.572033
vn -1.000000 0.000000 0.000000
vn -1.000000 0.000000 0.000000
vn 0.000000 -1.000000 0.000000
vn 0.000000 -1.000000 0.000000
vn 1.000000 0.000000 0.000000
vn 1.000000 0.000000 0.000000
vn 0.000000 -0.944581 -0.328280
vn 0.000000 -0.944581 -0.328280
vn 0.000000 -0.944581 -0.328280
vn 0.000000 -0.944581 -0.328280
vn 0.260904 -0.793543 -0.549744
vn 0.260904 -0.793543 -0.549744
vn 0.260904 -0.793543 -0.549744
vn 0.260904 -0.793543 -0.549744
vn -0.260904 -0.793543 -0.549744
vn -0.260904 -0.793543 -0.549744
vn -0.260904 -0.793543 -0.549744
vn -0.260904 -0.793543 -0.549744
vn 0.263630 -0.791214 0.551797
vn 0.263630 -0.791214 0.551797
vn 0.263630 -0.791214 0.551797
vn 0.263630 -0.791214 0.551797
vn 0.000000 -0.944581 0.328280
vn 0.000000 -0.944581 0.328280
vn 0.000000 -0.944581 0.328280
vn 0.000000 -0.944581 0.328280
vn -0.263630 -0.791214 0.551797
vn -0.263630 -0.791214 0.551797
vn -0.263630 -0.791214 0.551797
vn -0.263630 -0.791214 0.551797
vn 0.000000 -0.680124 0.733097
vn 0.000000 -0.680124 0.733097
vn 0.000000 -0.680124 0.733097
vn 0.000000 -0.680124 0.733097
vn 0.810990 -0.480927 -0.333173
vn 0.810990 -0.480927 -0.333173
vn 0.810990 -0.480927 -0.333173
vn 0.810990 -0.480927 -0.333173
vn -0.810990 -0.480926 -0.333173
vn -0.810990 -0.480926 -0.333173
vn -0.810990 -0.480926 -0.333173
vn -0.810990 -0.480926 -0.333173
vn 0.811112 -0.479746 0.334576
vn 0.811112 -0.479746 0.334576
vn 0.811112 -0.479746 0.334576
vn 0.811112 -0.479746 0.334576
vn 0.000000 -0.680124 -0.733097
vn 0.000000 -0.680124 -0.733097
vn 0.000000 -0.680124 -0.733097
vn 0.000000 -0.680124 -0.733097
vn -0.811112 -0.479745 0.334576
vn -0.811112 -0.479745 0.334576
vn -0.811112 -0.479745 0.334576
vn -0.811112 -0.479745 0.334576
s off
g pCube1
usemtl initialShadingGroup
f 1/1/1 2/38/2 4/29/3 3/30/4
s 1
f 19/5/5 20/6/6 21/31/7 22/32/8
s off
f 5/26/9 6/28/10 8/41/11 7/12/12
s 2
f 11/13/13 12/37/14 2/2/15 1/40/16
s 3
f 2/38/17 12/14/18 9/27/19 4/29/20
s 4
f 11/39/21 1/1/22 3/30/23 10/25/24
s 1
f 22/8/8 21/7/7 23/17/25 24/18/26
s 4
f 7/12/27 11/39/21 10/25/24 5/26/28
s 2
f 7/12/29 8/41/30 12/37/14 11/13/13
s 3
f 9/27/19 12/14/18 8/11/31 6/42/32
s off
f 3/4/33 4/3/34 14/19/35 13/20/36
f 4/3/37 9/36/38 15/34/39 14/19/40
f 10/16/41 3/4/42 13/20/43 16/22/44
f 9/15/45 6/10/46 17/23/47 15/21/48
f 6/10/49 5/9/50 18/24/51 17/23/52
f 5/9/53 10/35/54 16/33/55 18/24/56
f 13/20/57 14/19/58 20/6/59 19/5/60
f 14/19/61 15/34/62 21/31/63 20/6/64
f 16/22/65 13/20/66 19/5/67 22/32/68
f 15/21/69 17/23/70 23/17/71 21/7/72
f 17/23/73 18/24/74 24/18/75 23/17/76
f 18/24/77 16/33/78 22/8/79 24/18/80
